<mxfile host="app.diagrams.net" modified="2022-11-07T08:25:55.713Z" agent="5.0 (Windows NT 10.0; Win64; x64) AppleWebKit/537.36 (KHTML, like Gecko) Chrome/107.0.0.0 Safari/537.36" etag="Ayi3vOMzsMznqdER7BEZ" version="20.5.3" type="github">
  <diagram id="rn8RckNPHJYV3vcITOPi" name="Page-1">
    <mxGraphModel dx="1398" dy="678" grid="1" gridSize="10" guides="1" tooltips="1" connect="0" arrows="1" fold="1" page="1" pageScale="1" pageWidth="850" pageHeight="1100" math="0" shadow="0">
      <root>
        <mxCell id="0" />
        <mxCell id="1" parent="0" />
        <mxCell id="j8RtDfleuWw_CoYaBpES-5" value="Üniversite Yönetim Sistemi Tasarımı" style="text;html=1;resizable=0;autosize=1;align=center;verticalAlign=middle;points=[];fillColor=none;strokeColor=none;rounded=0;fontFamily=Times New Roman;fontSize=28;" vertex="1" parent="1">
          <mxGeometry x="190" y="20" width="440" height="50" as="geometry" />
        </mxCell>
        <mxCell id="j8RtDfleuWw_CoYaBpES-6" value="Üniversite" style="shape=table;startSize=30;container=1;collapsible=1;childLayout=tableLayout;fixedRows=1;rowLines=0;fontStyle=1;align=center;resizeLast=1;fontFamily=Times New Roman;fontSize=28;rounded=0;" vertex="1" parent="1">
          <mxGeometry x="190" y="80" width="210" height="170" as="geometry" />
        </mxCell>
        <mxCell id="j8RtDfleuWw_CoYaBpES-10" value="" style="shape=tableRow;horizontal=0;startSize=0;swimlaneHead=0;swimlaneBody=0;fillColor=none;collapsible=0;dropTarget=0;points=[[0,0.5],[1,0.5]];portConstraint=eastwest;top=0;left=0;right=0;bottom=1;fontFamily=Times New Roman;fontSize=28;rounded=0;" vertex="1" parent="j8RtDfleuWw_CoYaBpES-6">
          <mxGeometry y="30" width="210" height="60" as="geometry" />
        </mxCell>
        <mxCell id="j8RtDfleuWw_CoYaBpES-11" value="" style="shape=partialRectangle;connectable=0;fillColor=none;top=0;left=0;bottom=0;right=0;fontStyle=1;overflow=hidden;fontFamily=Times New Roman;fontSize=28;rounded=0;" vertex="1" parent="j8RtDfleuWw_CoYaBpES-10">
          <mxGeometry width="80" height="60" as="geometry">
            <mxRectangle width="80" height="60" as="alternateBounds" />
          </mxGeometry>
        </mxCell>
        <mxCell id="j8RtDfleuWw_CoYaBpES-12" value="" style="shape=partialRectangle;connectable=0;fillColor=none;top=0;left=0;bottom=0;right=0;align=left;spacingLeft=6;fontStyle=5;overflow=hidden;fontFamily=Times New Roman;fontSize=28;rounded=0;" vertex="1" parent="j8RtDfleuWw_CoYaBpES-10">
          <mxGeometry x="80" width="130" height="60" as="geometry">
            <mxRectangle width="130" height="60" as="alternateBounds" />
          </mxGeometry>
        </mxCell>
        <mxCell id="j8RtDfleuWw_CoYaBpES-7" value="" style="shape=tableRow;horizontal=0;startSize=0;swimlaneHead=0;swimlaneBody=0;fillColor=none;collapsible=0;dropTarget=0;points=[[0,0.5],[1,0.5]];portConstraint=eastwest;top=0;left=0;right=0;bottom=0;fontFamily=Times New Roman;fontSize=28;rounded=0;" vertex="1" parent="j8RtDfleuWw_CoYaBpES-6">
          <mxGeometry y="90" width="210" height="20" as="geometry" />
        </mxCell>
        <mxCell id="j8RtDfleuWw_CoYaBpES-8" value="" style="shape=partialRectangle;connectable=0;fillColor=none;top=0;left=0;bottom=0;right=0;fontStyle=1;overflow=hidden;fontFamily=Times New Roman;fontSize=28;rounded=0;" vertex="1" parent="j8RtDfleuWw_CoYaBpES-7">
          <mxGeometry width="80" height="20" as="geometry">
            <mxRectangle width="80" height="20" as="alternateBounds" />
          </mxGeometry>
        </mxCell>
        <mxCell id="j8RtDfleuWw_CoYaBpES-9" value="" style="shape=partialRectangle;connectable=0;fillColor=none;top=0;left=0;bottom=0;right=0;align=left;spacingLeft=6;fontStyle=5;overflow=hidden;fontFamily=Times New Roman;fontSize=28;rounded=0;" vertex="1" parent="j8RtDfleuWw_CoYaBpES-7">
          <mxGeometry x="80" width="130" height="20" as="geometry">
            <mxRectangle width="130" height="20" as="alternateBounds" />
          </mxGeometry>
        </mxCell>
        <mxCell id="j8RtDfleuWw_CoYaBpES-13" value="" style="shape=tableRow;horizontal=0;startSize=0;swimlaneHead=0;swimlaneBody=0;fillColor=none;collapsible=0;dropTarget=0;points=[[0,0.5],[1,0.5]];portConstraint=eastwest;top=0;left=0;right=0;bottom=0;fontFamily=Times New Roman;fontSize=28;rounded=0;" vertex="1" parent="j8RtDfleuWw_CoYaBpES-6">
          <mxGeometry y="110" width="210" height="30" as="geometry" />
        </mxCell>
        <mxCell id="j8RtDfleuWw_CoYaBpES-14" value="" style="shape=partialRectangle;connectable=0;fillColor=none;top=0;left=0;bottom=0;right=0;editable=1;overflow=hidden;fontFamily=Times New Roman;fontSize=28;rounded=0;" vertex="1" parent="j8RtDfleuWw_CoYaBpES-13">
          <mxGeometry width="80" height="30" as="geometry">
            <mxRectangle width="80" height="30" as="alternateBounds" />
          </mxGeometry>
        </mxCell>
        <mxCell id="j8RtDfleuWw_CoYaBpES-15" value="" style="shape=partialRectangle;connectable=0;fillColor=none;top=0;left=0;bottom=0;right=0;align=left;spacingLeft=6;overflow=hidden;fontFamily=Times New Roman;fontSize=28;rounded=0;" vertex="1" parent="j8RtDfleuWw_CoYaBpES-13">
          <mxGeometry x="80" width="130" height="30" as="geometry">
            <mxRectangle width="130" height="30" as="alternateBounds" />
          </mxGeometry>
        </mxCell>
        <mxCell id="j8RtDfleuWw_CoYaBpES-16" value="" style="shape=tableRow;horizontal=0;startSize=0;swimlaneHead=0;swimlaneBody=0;fillColor=none;collapsible=0;dropTarget=0;points=[[0,0.5],[1,0.5]];portConstraint=eastwest;top=0;left=0;right=0;bottom=0;fontFamily=Times New Roman;fontSize=28;rounded=0;" vertex="1" parent="j8RtDfleuWw_CoYaBpES-6">
          <mxGeometry y="140" width="210" height="30" as="geometry" />
        </mxCell>
        <mxCell id="j8RtDfleuWw_CoYaBpES-17" value="" style="shape=partialRectangle;connectable=0;fillColor=none;top=0;left=0;bottom=0;right=0;editable=1;overflow=hidden;fontFamily=Times New Roman;fontSize=28;rounded=0;" vertex="1" parent="j8RtDfleuWw_CoYaBpES-16">
          <mxGeometry width="80" height="30" as="geometry">
            <mxRectangle width="80" height="30" as="alternateBounds" />
          </mxGeometry>
        </mxCell>
        <mxCell id="j8RtDfleuWw_CoYaBpES-18" value="" style="shape=partialRectangle;connectable=0;fillColor=none;top=0;left=0;bottom=0;right=0;align=left;spacingLeft=6;overflow=hidden;fontFamily=Times New Roman;fontSize=28;rounded=0;" vertex="1" parent="j8RtDfleuWw_CoYaBpES-16">
          <mxGeometry x="80" width="130" height="30" as="geometry">
            <mxRectangle width="130" height="30" as="alternateBounds" />
          </mxGeometry>
        </mxCell>
        <mxCell id="j8RtDfleuWw_CoYaBpES-79" style="edgeStyle=orthogonalEdgeStyle;orthogonalLoop=1;jettySize=auto;html=1;fontFamily=Times New Roman;fontSize=28;endArrow=diamond;endFill=0;" edge="1" parent="1" source="j8RtDfleuWw_CoYaBpES-19" target="j8RtDfleuWw_CoYaBpES-7">
          <mxGeometry relative="1" as="geometry" />
        </mxCell>
        <mxCell id="j8RtDfleuWw_CoYaBpES-19" value="Öğrenci" style="shape=table;startSize=30;container=1;collapsible=1;childLayout=tableLayout;fixedRows=1;rowLines=0;fontStyle=1;align=center;resizeLast=1;fontFamily=Times New Roman;fontSize=28;rounded=0;" vertex="1" parent="1">
          <mxGeometry x="30" y="260" width="180" height="150" as="geometry" />
        </mxCell>
        <mxCell id="j8RtDfleuWw_CoYaBpES-20" value="" style="shape=tableRow;horizontal=0;startSize=0;swimlaneHead=0;swimlaneBody=0;fillColor=none;collapsible=0;dropTarget=0;points=[[0,0.5],[1,0.5]];portConstraint=eastwest;top=0;left=0;right=0;bottom=0;fontFamily=Times New Roman;fontSize=28;rounded=0;" vertex="1" parent="j8RtDfleuWw_CoYaBpES-19">
          <mxGeometry y="30" width="180" height="30" as="geometry" />
        </mxCell>
        <mxCell id="j8RtDfleuWw_CoYaBpES-21" value="" style="shape=partialRectangle;connectable=0;fillColor=none;top=0;left=0;bottom=0;right=0;fontStyle=1;overflow=hidden;fontFamily=Times New Roman;fontSize=28;rounded=0;" vertex="1" parent="j8RtDfleuWw_CoYaBpES-20">
          <mxGeometry width="60" height="30" as="geometry">
            <mxRectangle width="60" height="30" as="alternateBounds" />
          </mxGeometry>
        </mxCell>
        <mxCell id="j8RtDfleuWw_CoYaBpES-22" value="" style="shape=partialRectangle;connectable=0;fillColor=none;top=0;left=0;bottom=0;right=0;align=left;spacingLeft=6;fontStyle=5;overflow=hidden;fontFamily=Times New Roman;fontSize=28;rounded=0;" vertex="1" parent="j8RtDfleuWw_CoYaBpES-20">
          <mxGeometry x="60" width="120" height="30" as="geometry">
            <mxRectangle width="120" height="30" as="alternateBounds" />
          </mxGeometry>
        </mxCell>
        <mxCell id="j8RtDfleuWw_CoYaBpES-23" value="" style="shape=tableRow;horizontal=0;startSize=0;swimlaneHead=0;swimlaneBody=0;fillColor=none;collapsible=0;dropTarget=0;points=[[0,0.5],[1,0.5]];portConstraint=eastwest;top=0;left=0;right=0;bottom=1;fontFamily=Times New Roman;fontSize=28;rounded=0;" vertex="1" parent="j8RtDfleuWw_CoYaBpES-19">
          <mxGeometry y="60" width="180" height="30" as="geometry" />
        </mxCell>
        <mxCell id="j8RtDfleuWw_CoYaBpES-24" value="" style="shape=partialRectangle;connectable=0;fillColor=none;top=0;left=0;bottom=0;right=0;fontStyle=1;overflow=hidden;fontFamily=Times New Roman;fontSize=28;rounded=0;" vertex="1" parent="j8RtDfleuWw_CoYaBpES-23">
          <mxGeometry width="60" height="30" as="geometry">
            <mxRectangle width="60" height="30" as="alternateBounds" />
          </mxGeometry>
        </mxCell>
        <mxCell id="j8RtDfleuWw_CoYaBpES-25" value="" style="shape=partialRectangle;connectable=0;fillColor=none;top=0;left=0;bottom=0;right=0;align=left;spacingLeft=6;fontStyle=5;overflow=hidden;fontFamily=Times New Roman;fontSize=28;rounded=0;" vertex="1" parent="j8RtDfleuWw_CoYaBpES-23">
          <mxGeometry x="60" width="120" height="30" as="geometry">
            <mxRectangle width="120" height="30" as="alternateBounds" />
          </mxGeometry>
        </mxCell>
        <mxCell id="j8RtDfleuWw_CoYaBpES-26" value="" style="shape=tableRow;horizontal=0;startSize=0;swimlaneHead=0;swimlaneBody=0;fillColor=none;collapsible=0;dropTarget=0;points=[[0,0.5],[1,0.5]];portConstraint=eastwest;top=0;left=0;right=0;bottom=0;fontFamily=Times New Roman;fontSize=28;rounded=0;" vertex="1" parent="j8RtDfleuWw_CoYaBpES-19">
          <mxGeometry y="90" width="180" height="30" as="geometry" />
        </mxCell>
        <mxCell id="j8RtDfleuWw_CoYaBpES-27" value="" style="shape=partialRectangle;connectable=0;fillColor=none;top=0;left=0;bottom=0;right=0;editable=1;overflow=hidden;fontFamily=Times New Roman;fontSize=28;rounded=0;" vertex="1" parent="j8RtDfleuWw_CoYaBpES-26">
          <mxGeometry width="60" height="30" as="geometry">
            <mxRectangle width="60" height="30" as="alternateBounds" />
          </mxGeometry>
        </mxCell>
        <mxCell id="j8RtDfleuWw_CoYaBpES-28" value="" style="shape=partialRectangle;connectable=0;fillColor=none;top=0;left=0;bottom=0;right=0;align=left;spacingLeft=6;overflow=hidden;fontFamily=Times New Roman;fontSize=28;rounded=0;" vertex="1" parent="j8RtDfleuWw_CoYaBpES-26">
          <mxGeometry x="60" width="120" height="30" as="geometry">
            <mxRectangle width="120" height="30" as="alternateBounds" />
          </mxGeometry>
        </mxCell>
        <mxCell id="j8RtDfleuWw_CoYaBpES-29" value="" style="shape=tableRow;horizontal=0;startSize=0;swimlaneHead=0;swimlaneBody=0;fillColor=none;collapsible=0;dropTarget=0;points=[[0,0.5],[1,0.5]];portConstraint=eastwest;top=0;left=0;right=0;bottom=0;fontFamily=Times New Roman;fontSize=28;rounded=0;" vertex="1" parent="j8RtDfleuWw_CoYaBpES-19">
          <mxGeometry y="120" width="180" height="30" as="geometry" />
        </mxCell>
        <mxCell id="j8RtDfleuWw_CoYaBpES-30" value="" style="shape=partialRectangle;connectable=0;fillColor=none;top=0;left=0;bottom=0;right=0;editable=1;overflow=hidden;fontFamily=Times New Roman;fontSize=28;rounded=0;" vertex="1" parent="j8RtDfleuWw_CoYaBpES-29">
          <mxGeometry width="60" height="30" as="geometry">
            <mxRectangle width="60" height="30" as="alternateBounds" />
          </mxGeometry>
        </mxCell>
        <mxCell id="j8RtDfleuWw_CoYaBpES-31" value="" style="shape=partialRectangle;connectable=0;fillColor=none;top=0;left=0;bottom=0;right=0;align=left;spacingLeft=6;overflow=hidden;fontFamily=Times New Roman;fontSize=28;rounded=0;" vertex="1" parent="j8RtDfleuWw_CoYaBpES-29">
          <mxGeometry x="60" width="120" height="30" as="geometry">
            <mxRectangle width="120" height="30" as="alternateBounds" />
          </mxGeometry>
        </mxCell>
        <mxCell id="j8RtDfleuWw_CoYaBpES-80" style="edgeStyle=orthogonalEdgeStyle;orthogonalLoop=1;jettySize=auto;html=1;entryX=0.722;entryY=1.033;entryDx=0;entryDy=0;entryPerimeter=0;fontFamily=Times New Roman;fontSize=28;endArrow=classic;endFill=1;" edge="1" parent="1" source="j8RtDfleuWw_CoYaBpES-32" target="j8RtDfleuWw_CoYaBpES-16">
          <mxGeometry relative="1" as="geometry" />
        </mxCell>
        <mxCell id="j8RtDfleuWw_CoYaBpES-32" value="Sınavlar" style="shape=table;startSize=30;container=1;collapsible=1;childLayout=tableLayout;fixedRows=1;rowLines=0;fontStyle=1;align=center;resizeLast=1;fontFamily=Times New Roman;fontSize=28;rounded=0;" vertex="1" parent="1">
          <mxGeometry x="250" y="480" width="180" height="120" as="geometry" />
        </mxCell>
        <mxCell id="j8RtDfleuWw_CoYaBpES-36" value="" style="shape=tableRow;horizontal=0;startSize=0;swimlaneHead=0;swimlaneBody=0;fillColor=none;collapsible=0;dropTarget=0;points=[[0,0.5],[1,0.5]];portConstraint=eastwest;top=0;left=0;right=0;bottom=1;fontFamily=Times New Roman;fontSize=28;rounded=0;" vertex="1" parent="j8RtDfleuWw_CoYaBpES-32">
          <mxGeometry y="30" width="180" height="30" as="geometry" />
        </mxCell>
        <mxCell id="j8RtDfleuWw_CoYaBpES-37" value="" style="shape=partialRectangle;connectable=0;fillColor=none;top=0;left=0;bottom=0;right=0;fontStyle=1;overflow=hidden;fontFamily=Times New Roman;fontSize=28;rounded=0;" vertex="1" parent="j8RtDfleuWw_CoYaBpES-36">
          <mxGeometry width="60" height="30" as="geometry">
            <mxRectangle width="60" height="30" as="alternateBounds" />
          </mxGeometry>
        </mxCell>
        <mxCell id="j8RtDfleuWw_CoYaBpES-38" value="" style="shape=partialRectangle;connectable=0;fillColor=none;top=0;left=0;bottom=0;right=0;align=left;spacingLeft=6;fontStyle=5;overflow=hidden;fontFamily=Times New Roman;fontSize=28;rounded=0;" vertex="1" parent="j8RtDfleuWw_CoYaBpES-36">
          <mxGeometry x="60" width="120" height="30" as="geometry">
            <mxRectangle width="120" height="30" as="alternateBounds" />
          </mxGeometry>
        </mxCell>
        <mxCell id="j8RtDfleuWw_CoYaBpES-39" value="" style="shape=tableRow;horizontal=0;startSize=0;swimlaneHead=0;swimlaneBody=0;fillColor=none;collapsible=0;dropTarget=0;points=[[0,0.5],[1,0.5]];portConstraint=eastwest;top=0;left=0;right=0;bottom=0;fontFamily=Times New Roman;fontSize=28;rounded=0;" vertex="1" parent="j8RtDfleuWw_CoYaBpES-32">
          <mxGeometry y="60" width="180" height="30" as="geometry" />
        </mxCell>
        <mxCell id="j8RtDfleuWw_CoYaBpES-40" value="" style="shape=partialRectangle;connectable=0;fillColor=none;top=0;left=0;bottom=0;right=0;editable=1;overflow=hidden;fontFamily=Times New Roman;fontSize=28;rounded=0;" vertex="1" parent="j8RtDfleuWw_CoYaBpES-39">
          <mxGeometry width="60" height="30" as="geometry">
            <mxRectangle width="60" height="30" as="alternateBounds" />
          </mxGeometry>
        </mxCell>
        <mxCell id="j8RtDfleuWw_CoYaBpES-41" value="" style="shape=partialRectangle;connectable=0;fillColor=none;top=0;left=0;bottom=0;right=0;align=left;spacingLeft=6;overflow=hidden;fontFamily=Times New Roman;fontSize=28;rounded=0;" vertex="1" parent="j8RtDfleuWw_CoYaBpES-39">
          <mxGeometry x="60" width="120" height="30" as="geometry">
            <mxRectangle width="120" height="30" as="alternateBounds" />
          </mxGeometry>
        </mxCell>
        <mxCell id="j8RtDfleuWw_CoYaBpES-42" value="" style="shape=tableRow;horizontal=0;startSize=0;swimlaneHead=0;swimlaneBody=0;fillColor=none;collapsible=0;dropTarget=0;points=[[0,0.5],[1,0.5]];portConstraint=eastwest;top=0;left=0;right=0;bottom=0;fontFamily=Times New Roman;fontSize=28;rounded=0;" vertex="1" parent="j8RtDfleuWw_CoYaBpES-32">
          <mxGeometry y="90" width="180" height="30" as="geometry" />
        </mxCell>
        <mxCell id="j8RtDfleuWw_CoYaBpES-43" value="" style="shape=partialRectangle;connectable=0;fillColor=none;top=0;left=0;bottom=0;right=0;editable=1;overflow=hidden;fontFamily=Times New Roman;fontSize=28;rounded=0;" vertex="1" parent="j8RtDfleuWw_CoYaBpES-42">
          <mxGeometry width="60" height="30" as="geometry">
            <mxRectangle width="60" height="30" as="alternateBounds" />
          </mxGeometry>
        </mxCell>
        <mxCell id="j8RtDfleuWw_CoYaBpES-44" value="" style="shape=partialRectangle;connectable=0;fillColor=none;top=0;left=0;bottom=0;right=0;align=left;spacingLeft=6;overflow=hidden;fontFamily=Times New Roman;fontSize=28;rounded=0;" vertex="1" parent="j8RtDfleuWw_CoYaBpES-42">
          <mxGeometry x="60" width="120" height="30" as="geometry">
            <mxRectangle width="120" height="30" as="alternateBounds" />
          </mxGeometry>
        </mxCell>
        <mxCell id="j8RtDfleuWw_CoYaBpES-45" value="Professor" style="shape=table;startSize=30;container=1;collapsible=1;childLayout=tableLayout;fixedRows=1;rowLines=0;fontStyle=1;align=center;resizeLast=1;fontFamily=Times New Roman;fontSize=28;rounded=0;" vertex="1" parent="1">
          <mxGeometry x="560" y="480" width="180" height="150" as="geometry" />
        </mxCell>
        <mxCell id="j8RtDfleuWw_CoYaBpES-46" value="" style="shape=tableRow;horizontal=0;startSize=0;swimlaneHead=0;swimlaneBody=0;fillColor=none;collapsible=0;dropTarget=0;points=[[0,0.5],[1,0.5]];portConstraint=eastwest;top=0;left=0;right=0;bottom=0;fontFamily=Times New Roman;fontSize=28;rounded=0;" vertex="1" parent="j8RtDfleuWw_CoYaBpES-45">
          <mxGeometry y="30" width="180" height="30" as="geometry" />
        </mxCell>
        <mxCell id="j8RtDfleuWw_CoYaBpES-47" value="" style="shape=partialRectangle;connectable=0;fillColor=none;top=0;left=0;bottom=0;right=0;fontStyle=1;overflow=hidden;fontFamily=Times New Roman;fontSize=28;rounded=0;" vertex="1" parent="j8RtDfleuWw_CoYaBpES-46">
          <mxGeometry width="60" height="30" as="geometry">
            <mxRectangle width="60" height="30" as="alternateBounds" />
          </mxGeometry>
        </mxCell>
        <mxCell id="j8RtDfleuWw_CoYaBpES-48" value="" style="shape=partialRectangle;connectable=0;fillColor=none;top=0;left=0;bottom=0;right=0;align=left;spacingLeft=6;fontStyle=5;overflow=hidden;fontFamily=Times New Roman;fontSize=28;rounded=0;" vertex="1" parent="j8RtDfleuWw_CoYaBpES-46">
          <mxGeometry x="60" width="120" height="30" as="geometry">
            <mxRectangle width="120" height="30" as="alternateBounds" />
          </mxGeometry>
        </mxCell>
        <mxCell id="j8RtDfleuWw_CoYaBpES-49" value="" style="shape=tableRow;horizontal=0;startSize=0;swimlaneHead=0;swimlaneBody=0;fillColor=none;collapsible=0;dropTarget=0;points=[[0,0.5],[1,0.5]];portConstraint=eastwest;top=0;left=0;right=0;bottom=1;fontFamily=Times New Roman;fontSize=28;rounded=0;" vertex="1" parent="j8RtDfleuWw_CoYaBpES-45">
          <mxGeometry y="60" width="180" height="30" as="geometry" />
        </mxCell>
        <mxCell id="j8RtDfleuWw_CoYaBpES-50" value="" style="shape=partialRectangle;connectable=0;fillColor=none;top=0;left=0;bottom=0;right=0;fontStyle=1;overflow=hidden;fontFamily=Times New Roman;fontSize=28;rounded=0;" vertex="1" parent="j8RtDfleuWw_CoYaBpES-49">
          <mxGeometry width="60" height="30" as="geometry">
            <mxRectangle width="60" height="30" as="alternateBounds" />
          </mxGeometry>
        </mxCell>
        <mxCell id="j8RtDfleuWw_CoYaBpES-51" value="" style="shape=partialRectangle;connectable=0;fillColor=none;top=0;left=0;bottom=0;right=0;align=left;spacingLeft=6;fontStyle=5;overflow=hidden;fontFamily=Times New Roman;fontSize=28;rounded=0;" vertex="1" parent="j8RtDfleuWw_CoYaBpES-49">
          <mxGeometry x="60" width="120" height="30" as="geometry">
            <mxRectangle width="120" height="30" as="alternateBounds" />
          </mxGeometry>
        </mxCell>
        <mxCell id="j8RtDfleuWw_CoYaBpES-52" value="" style="shape=tableRow;horizontal=0;startSize=0;swimlaneHead=0;swimlaneBody=0;fillColor=none;collapsible=0;dropTarget=0;points=[[0,0.5],[1,0.5]];portConstraint=eastwest;top=0;left=0;right=0;bottom=0;fontFamily=Times New Roman;fontSize=28;rounded=0;" vertex="1" parent="j8RtDfleuWw_CoYaBpES-45">
          <mxGeometry y="90" width="180" height="30" as="geometry" />
        </mxCell>
        <mxCell id="j8RtDfleuWw_CoYaBpES-53" value="" style="shape=partialRectangle;connectable=0;fillColor=none;top=0;left=0;bottom=0;right=0;editable=1;overflow=hidden;fontFamily=Times New Roman;fontSize=28;rounded=0;" vertex="1" parent="j8RtDfleuWw_CoYaBpES-52">
          <mxGeometry width="60" height="30" as="geometry">
            <mxRectangle width="60" height="30" as="alternateBounds" />
          </mxGeometry>
        </mxCell>
        <mxCell id="j8RtDfleuWw_CoYaBpES-54" value="" style="shape=partialRectangle;connectable=0;fillColor=none;top=0;left=0;bottom=0;right=0;align=left;spacingLeft=6;overflow=hidden;fontFamily=Times New Roman;fontSize=28;rounded=0;" vertex="1" parent="j8RtDfleuWw_CoYaBpES-52">
          <mxGeometry x="60" width="120" height="30" as="geometry">
            <mxRectangle width="120" height="30" as="alternateBounds" />
          </mxGeometry>
        </mxCell>
        <mxCell id="j8RtDfleuWw_CoYaBpES-55" value="" style="shape=tableRow;horizontal=0;startSize=0;swimlaneHead=0;swimlaneBody=0;fillColor=none;collapsible=0;dropTarget=0;points=[[0,0.5],[1,0.5]];portConstraint=eastwest;top=0;left=0;right=0;bottom=0;fontFamily=Times New Roman;fontSize=28;rounded=0;" vertex="1" parent="j8RtDfleuWw_CoYaBpES-45">
          <mxGeometry y="120" width="180" height="30" as="geometry" />
        </mxCell>
        <mxCell id="j8RtDfleuWw_CoYaBpES-56" value="" style="shape=partialRectangle;connectable=0;fillColor=none;top=0;left=0;bottom=0;right=0;editable=1;overflow=hidden;fontFamily=Times New Roman;fontSize=28;rounded=0;" vertex="1" parent="j8RtDfleuWw_CoYaBpES-55">
          <mxGeometry width="60" height="30" as="geometry">
            <mxRectangle width="60" height="30" as="alternateBounds" />
          </mxGeometry>
        </mxCell>
        <mxCell id="j8RtDfleuWw_CoYaBpES-57" value="" style="shape=partialRectangle;connectable=0;fillColor=none;top=0;left=0;bottom=0;right=0;align=left;spacingLeft=6;overflow=hidden;fontFamily=Times New Roman;fontSize=28;rounded=0;" vertex="1" parent="j8RtDfleuWw_CoYaBpES-55">
          <mxGeometry x="60" width="120" height="30" as="geometry">
            <mxRectangle width="120" height="30" as="alternateBounds" />
          </mxGeometry>
        </mxCell>
        <mxCell id="j8RtDfleuWw_CoYaBpES-78" style="edgeStyle=orthogonalEdgeStyle;orthogonalLoop=1;jettySize=auto;html=1;entryX=0.994;entryY=0.433;entryDx=0;entryDy=0;entryPerimeter=0;fontFamily=Times New Roman;fontSize=28;endArrow=diamond;endFill=0;" edge="1" parent="1" source="j8RtDfleuWw_CoYaBpES-58" target="j8RtDfleuWw_CoYaBpES-7">
          <mxGeometry relative="1" as="geometry" />
        </mxCell>
        <mxCell id="j8RtDfleuWw_CoYaBpES-58" value="Kampüs" style="shape=table;startSize=30;container=1;collapsible=1;childLayout=tableLayout;fixedRows=1;rowLines=0;fontStyle=1;align=center;resizeLast=1;fontFamily=Times New Roman;fontSize=28;rounded=0;" vertex="1" parent="1">
          <mxGeometry x="560" y="260" width="180" height="140" as="geometry" />
        </mxCell>
        <mxCell id="j8RtDfleuWw_CoYaBpES-59" value="" style="shape=tableRow;horizontal=0;startSize=0;swimlaneHead=0;swimlaneBody=0;fillColor=none;collapsible=0;dropTarget=0;points=[[0,0.5],[1,0.5]];portConstraint=eastwest;top=0;left=0;right=0;bottom=0;fontFamily=Times New Roman;fontSize=28;rounded=0;" vertex="1" parent="j8RtDfleuWw_CoYaBpES-58">
          <mxGeometry y="30" width="180" height="30" as="geometry" />
        </mxCell>
        <mxCell id="j8RtDfleuWw_CoYaBpES-60" value="" style="shape=partialRectangle;connectable=0;fillColor=none;top=0;left=0;bottom=0;right=0;fontStyle=1;overflow=hidden;fontFamily=Times New Roman;fontSize=28;rounded=0;" vertex="1" parent="j8RtDfleuWw_CoYaBpES-59">
          <mxGeometry width="60" height="30" as="geometry">
            <mxRectangle width="60" height="30" as="alternateBounds" />
          </mxGeometry>
        </mxCell>
        <mxCell id="j8RtDfleuWw_CoYaBpES-61" value="" style="shape=partialRectangle;connectable=0;fillColor=none;top=0;left=0;bottom=0;right=0;align=left;spacingLeft=6;fontStyle=5;overflow=hidden;fontFamily=Times New Roman;fontSize=28;rounded=0;" vertex="1" parent="j8RtDfleuWw_CoYaBpES-59">
          <mxGeometry x="60" width="120" height="30" as="geometry">
            <mxRectangle width="120" height="30" as="alternateBounds" />
          </mxGeometry>
        </mxCell>
        <mxCell id="j8RtDfleuWw_CoYaBpES-62" value="" style="shape=tableRow;horizontal=0;startSize=0;swimlaneHead=0;swimlaneBody=0;fillColor=none;collapsible=0;dropTarget=0;points=[[0,0.5],[1,0.5]];portConstraint=eastwest;top=0;left=0;right=0;bottom=1;fontFamily=Times New Roman;fontSize=28;rounded=0;" vertex="1" parent="j8RtDfleuWw_CoYaBpES-58">
          <mxGeometry y="60" width="180" height="20" as="geometry" />
        </mxCell>
        <mxCell id="j8RtDfleuWw_CoYaBpES-63" value="" style="shape=partialRectangle;connectable=0;fillColor=none;top=0;left=0;bottom=0;right=0;fontStyle=1;overflow=hidden;fontFamily=Times New Roman;fontSize=28;rounded=0;" vertex="1" parent="j8RtDfleuWw_CoYaBpES-62">
          <mxGeometry width="60" height="20" as="geometry">
            <mxRectangle width="60" height="20" as="alternateBounds" />
          </mxGeometry>
        </mxCell>
        <mxCell id="j8RtDfleuWw_CoYaBpES-64" value="" style="shape=partialRectangle;connectable=0;fillColor=none;top=0;left=0;bottom=0;right=0;align=left;spacingLeft=6;fontStyle=5;overflow=hidden;fontFamily=Times New Roman;fontSize=28;rounded=0;" vertex="1" parent="j8RtDfleuWw_CoYaBpES-62">
          <mxGeometry x="60" width="120" height="20" as="geometry">
            <mxRectangle width="120" height="20" as="alternateBounds" />
          </mxGeometry>
        </mxCell>
        <mxCell id="j8RtDfleuWw_CoYaBpES-65" value="" style="shape=tableRow;horizontal=0;startSize=0;swimlaneHead=0;swimlaneBody=0;fillColor=none;collapsible=0;dropTarget=0;points=[[0,0.5],[1,0.5]];portConstraint=eastwest;top=0;left=0;right=0;bottom=0;fontFamily=Times New Roman;fontSize=28;rounded=0;" vertex="1" parent="j8RtDfleuWw_CoYaBpES-58">
          <mxGeometry y="80" width="180" height="30" as="geometry" />
        </mxCell>
        <mxCell id="j8RtDfleuWw_CoYaBpES-66" value="" style="shape=partialRectangle;connectable=0;fillColor=none;top=0;left=0;bottom=0;right=0;editable=1;overflow=hidden;fontFamily=Times New Roman;fontSize=28;rounded=0;" vertex="1" parent="j8RtDfleuWw_CoYaBpES-65">
          <mxGeometry width="60" height="30" as="geometry">
            <mxRectangle width="60" height="30" as="alternateBounds" />
          </mxGeometry>
        </mxCell>
        <mxCell id="j8RtDfleuWw_CoYaBpES-67" value="" style="shape=partialRectangle;connectable=0;fillColor=none;top=0;left=0;bottom=0;right=0;align=left;spacingLeft=6;overflow=hidden;fontFamily=Times New Roman;fontSize=28;rounded=0;" vertex="1" parent="j8RtDfleuWw_CoYaBpES-65">
          <mxGeometry x="60" width="120" height="30" as="geometry">
            <mxRectangle width="120" height="30" as="alternateBounds" />
          </mxGeometry>
        </mxCell>
        <mxCell id="j8RtDfleuWw_CoYaBpES-68" value="" style="shape=tableRow;horizontal=0;startSize=0;swimlaneHead=0;swimlaneBody=0;fillColor=none;collapsible=0;dropTarget=0;points=[[0,0.5],[1,0.5]];portConstraint=eastwest;top=0;left=0;right=0;bottom=0;fontFamily=Times New Roman;fontSize=28;rounded=0;" vertex="1" parent="j8RtDfleuWw_CoYaBpES-58">
          <mxGeometry y="110" width="180" height="30" as="geometry" />
        </mxCell>
        <mxCell id="j8RtDfleuWw_CoYaBpES-69" value="" style="shape=partialRectangle;connectable=0;fillColor=none;top=0;left=0;bottom=0;right=0;editable=1;overflow=hidden;fontFamily=Times New Roman;fontSize=28;rounded=0;" vertex="1" parent="j8RtDfleuWw_CoYaBpES-68">
          <mxGeometry width="60" height="30" as="geometry">
            <mxRectangle width="60" height="30" as="alternateBounds" />
          </mxGeometry>
        </mxCell>
        <mxCell id="j8RtDfleuWw_CoYaBpES-70" value="" style="shape=partialRectangle;connectable=0;fillColor=none;top=0;left=0;bottom=0;right=0;align=left;spacingLeft=6;overflow=hidden;fontFamily=Times New Roman;fontSize=28;rounded=0;" vertex="1" parent="j8RtDfleuWw_CoYaBpES-68">
          <mxGeometry x="60" width="120" height="30" as="geometry">
            <mxRectangle width="120" height="30" as="alternateBounds" />
          </mxGeometry>
        </mxCell>
        <mxCell id="j8RtDfleuWw_CoYaBpES-81" style="edgeStyle=orthogonalEdgeStyle;orthogonalLoop=1;jettySize=auto;html=1;entryX=-0.017;entryY=0.367;entryDx=0;entryDy=0;entryPerimeter=0;fontFamily=Times New Roman;fontSize=28;endArrow=classic;endFill=1;" edge="1" parent="1" source="j8RtDfleuWw_CoYaBpES-26" target="j8RtDfleuWw_CoYaBpES-65">
          <mxGeometry relative="1" as="geometry" />
        </mxCell>
        <mxCell id="j8RtDfleuWw_CoYaBpES-123" style="edgeStyle=orthogonalEdgeStyle;orthogonalLoop=1;jettySize=auto;html=1;fontFamily=Times New Roman;fontSize=28;endArrow=block;endFill=0;" edge="1" parent="1" source="j8RtDfleuWw_CoYaBpES-82" target="j8RtDfleuWw_CoYaBpES-42">
          <mxGeometry relative="1" as="geometry">
            <Array as="points">
              <mxPoint x="190" y="660" />
              <mxPoint x="340" y="660" />
            </Array>
          </mxGeometry>
        </mxCell>
        <mxCell id="j8RtDfleuWw_CoYaBpES-82" value="Vize" style="shape=table;startSize=30;container=1;collapsible=1;childLayout=tableLayout;fixedRows=1;rowLines=0;fontStyle=1;align=center;resizeLast=1;fontFamily=Times New Roman;fontSize=28;rounded=0;" vertex="1" parent="1">
          <mxGeometry x="100" y="690" width="180" height="150" as="geometry" />
        </mxCell>
        <mxCell id="j8RtDfleuWw_CoYaBpES-83" value="" style="shape=tableRow;horizontal=0;startSize=0;swimlaneHead=0;swimlaneBody=0;fillColor=none;collapsible=0;dropTarget=0;points=[[0,0.5],[1,0.5]];portConstraint=eastwest;top=0;left=0;right=0;bottom=0;fontFamily=Times New Roman;fontSize=28;rounded=0;" vertex="1" parent="j8RtDfleuWw_CoYaBpES-82">
          <mxGeometry y="30" width="180" height="30" as="geometry" />
        </mxCell>
        <mxCell id="j8RtDfleuWw_CoYaBpES-84" value="" style="shape=partialRectangle;connectable=0;fillColor=none;top=0;left=0;bottom=0;right=0;fontStyle=1;overflow=hidden;fontFamily=Times New Roman;fontSize=28;rounded=0;" vertex="1" parent="j8RtDfleuWw_CoYaBpES-83">
          <mxGeometry width="60" height="30" as="geometry">
            <mxRectangle width="60" height="30" as="alternateBounds" />
          </mxGeometry>
        </mxCell>
        <mxCell id="j8RtDfleuWw_CoYaBpES-85" value="" style="shape=partialRectangle;connectable=0;fillColor=none;top=0;left=0;bottom=0;right=0;align=left;spacingLeft=6;fontStyle=5;overflow=hidden;fontFamily=Times New Roman;fontSize=28;rounded=0;" vertex="1" parent="j8RtDfleuWw_CoYaBpES-83">
          <mxGeometry x="60" width="120" height="30" as="geometry">
            <mxRectangle width="120" height="30" as="alternateBounds" />
          </mxGeometry>
        </mxCell>
        <mxCell id="j8RtDfleuWw_CoYaBpES-86" value="" style="shape=tableRow;horizontal=0;startSize=0;swimlaneHead=0;swimlaneBody=0;fillColor=none;collapsible=0;dropTarget=0;points=[[0,0.5],[1,0.5]];portConstraint=eastwest;top=0;left=0;right=0;bottom=1;fontFamily=Times New Roman;fontSize=28;rounded=0;" vertex="1" parent="j8RtDfleuWw_CoYaBpES-82">
          <mxGeometry y="60" width="180" height="30" as="geometry" />
        </mxCell>
        <mxCell id="j8RtDfleuWw_CoYaBpES-87" value="" style="shape=partialRectangle;connectable=0;fillColor=none;top=0;left=0;bottom=0;right=0;fontStyle=1;overflow=hidden;fontFamily=Times New Roman;fontSize=28;rounded=0;" vertex="1" parent="j8RtDfleuWw_CoYaBpES-86">
          <mxGeometry width="60" height="30" as="geometry">
            <mxRectangle width="60" height="30" as="alternateBounds" />
          </mxGeometry>
        </mxCell>
        <mxCell id="j8RtDfleuWw_CoYaBpES-88" value="" style="shape=partialRectangle;connectable=0;fillColor=none;top=0;left=0;bottom=0;right=0;align=left;spacingLeft=6;fontStyle=5;overflow=hidden;fontFamily=Times New Roman;fontSize=28;rounded=0;" vertex="1" parent="j8RtDfleuWw_CoYaBpES-86">
          <mxGeometry x="60" width="120" height="30" as="geometry">
            <mxRectangle width="120" height="30" as="alternateBounds" />
          </mxGeometry>
        </mxCell>
        <mxCell id="j8RtDfleuWw_CoYaBpES-89" value="" style="shape=tableRow;horizontal=0;startSize=0;swimlaneHead=0;swimlaneBody=0;fillColor=none;collapsible=0;dropTarget=0;points=[[0,0.5],[1,0.5]];portConstraint=eastwest;top=0;left=0;right=0;bottom=0;fontFamily=Times New Roman;fontSize=28;rounded=0;" vertex="1" parent="j8RtDfleuWw_CoYaBpES-82">
          <mxGeometry y="90" width="180" height="30" as="geometry" />
        </mxCell>
        <mxCell id="j8RtDfleuWw_CoYaBpES-90" value="" style="shape=partialRectangle;connectable=0;fillColor=none;top=0;left=0;bottom=0;right=0;editable=1;overflow=hidden;fontFamily=Times New Roman;fontSize=28;rounded=0;" vertex="1" parent="j8RtDfleuWw_CoYaBpES-89">
          <mxGeometry width="60" height="30" as="geometry">
            <mxRectangle width="60" height="30" as="alternateBounds" />
          </mxGeometry>
        </mxCell>
        <mxCell id="j8RtDfleuWw_CoYaBpES-91" value="" style="shape=partialRectangle;connectable=0;fillColor=none;top=0;left=0;bottom=0;right=0;align=left;spacingLeft=6;overflow=hidden;fontFamily=Times New Roman;fontSize=28;rounded=0;" vertex="1" parent="j8RtDfleuWw_CoYaBpES-89">
          <mxGeometry x="60" width="120" height="30" as="geometry">
            <mxRectangle width="120" height="30" as="alternateBounds" />
          </mxGeometry>
        </mxCell>
        <mxCell id="j8RtDfleuWw_CoYaBpES-92" value="" style="shape=tableRow;horizontal=0;startSize=0;swimlaneHead=0;swimlaneBody=0;fillColor=none;collapsible=0;dropTarget=0;points=[[0,0.5],[1,0.5]];portConstraint=eastwest;top=0;left=0;right=0;bottom=0;fontFamily=Times New Roman;fontSize=28;rounded=0;" vertex="1" parent="j8RtDfleuWw_CoYaBpES-82">
          <mxGeometry y="120" width="180" height="30" as="geometry" />
        </mxCell>
        <mxCell id="j8RtDfleuWw_CoYaBpES-93" value="" style="shape=partialRectangle;connectable=0;fillColor=none;top=0;left=0;bottom=0;right=0;editable=1;overflow=hidden;fontFamily=Times New Roman;fontSize=28;rounded=0;" vertex="1" parent="j8RtDfleuWw_CoYaBpES-92">
          <mxGeometry width="60" height="30" as="geometry">
            <mxRectangle width="60" height="30" as="alternateBounds" />
          </mxGeometry>
        </mxCell>
        <mxCell id="j8RtDfleuWw_CoYaBpES-94" value="" style="shape=partialRectangle;connectable=0;fillColor=none;top=0;left=0;bottom=0;right=0;align=left;spacingLeft=6;overflow=hidden;fontFamily=Times New Roman;fontSize=28;rounded=0;" vertex="1" parent="j8RtDfleuWw_CoYaBpES-92">
          <mxGeometry x="60" width="120" height="30" as="geometry">
            <mxRectangle width="120" height="30" as="alternateBounds" />
          </mxGeometry>
        </mxCell>
        <mxCell id="j8RtDfleuWw_CoYaBpES-122" style="edgeStyle=orthogonalEdgeStyle;orthogonalLoop=1;jettySize=auto;html=1;entryX=0.65;entryY=1.133;entryDx=0;entryDy=0;entryPerimeter=0;fontFamily=Times New Roman;fontSize=28;endArrow=block;endFill=0;" edge="1" parent="1" source="j8RtDfleuWw_CoYaBpES-95" target="j8RtDfleuWw_CoYaBpES-42">
          <mxGeometry relative="1" as="geometry">
            <Array as="points">
              <mxPoint x="490" y="660" />
              <mxPoint x="367" y="660" />
            </Array>
          </mxGeometry>
        </mxCell>
        <mxCell id="j8RtDfleuWw_CoYaBpES-95" value="Final" style="shape=table;startSize=30;container=1;collapsible=1;childLayout=tableLayout;fixedRows=1;rowLines=0;fontStyle=1;align=center;resizeLast=1;fontFamily=Times New Roman;fontSize=28;rounded=0;" vertex="1" parent="1">
          <mxGeometry x="400" y="700" width="180" height="150" as="geometry" />
        </mxCell>
        <mxCell id="j8RtDfleuWw_CoYaBpES-96" value="" style="shape=tableRow;horizontal=0;startSize=0;swimlaneHead=0;swimlaneBody=0;fillColor=none;collapsible=0;dropTarget=0;points=[[0,0.5],[1,0.5]];portConstraint=eastwest;top=0;left=0;right=0;bottom=0;fontFamily=Times New Roman;fontSize=28;rounded=0;" vertex="1" parent="j8RtDfleuWw_CoYaBpES-95">
          <mxGeometry y="30" width="180" height="30" as="geometry" />
        </mxCell>
        <mxCell id="j8RtDfleuWw_CoYaBpES-97" value="" style="shape=partialRectangle;connectable=0;fillColor=none;top=0;left=0;bottom=0;right=0;fontStyle=1;overflow=hidden;fontFamily=Times New Roman;fontSize=28;rounded=0;" vertex="1" parent="j8RtDfleuWw_CoYaBpES-96">
          <mxGeometry width="60" height="30" as="geometry">
            <mxRectangle width="60" height="30" as="alternateBounds" />
          </mxGeometry>
        </mxCell>
        <mxCell id="j8RtDfleuWw_CoYaBpES-98" value="" style="shape=partialRectangle;connectable=0;fillColor=none;top=0;left=0;bottom=0;right=0;align=left;spacingLeft=6;fontStyle=5;overflow=hidden;fontFamily=Times New Roman;fontSize=28;rounded=0;" vertex="1" parent="j8RtDfleuWw_CoYaBpES-96">
          <mxGeometry x="60" width="120" height="30" as="geometry">
            <mxRectangle width="120" height="30" as="alternateBounds" />
          </mxGeometry>
        </mxCell>
        <mxCell id="j8RtDfleuWw_CoYaBpES-99" value="" style="shape=tableRow;horizontal=0;startSize=0;swimlaneHead=0;swimlaneBody=0;fillColor=none;collapsible=0;dropTarget=0;points=[[0,0.5],[1,0.5]];portConstraint=eastwest;top=0;left=0;right=0;bottom=1;fontFamily=Times New Roman;fontSize=28;rounded=0;" vertex="1" parent="j8RtDfleuWw_CoYaBpES-95">
          <mxGeometry y="60" width="180" height="30" as="geometry" />
        </mxCell>
        <mxCell id="j8RtDfleuWw_CoYaBpES-100" value="" style="shape=partialRectangle;connectable=0;fillColor=none;top=0;left=0;bottom=0;right=0;fontStyle=1;overflow=hidden;fontFamily=Times New Roman;fontSize=28;rounded=0;" vertex="1" parent="j8RtDfleuWw_CoYaBpES-99">
          <mxGeometry width="60" height="30" as="geometry">
            <mxRectangle width="60" height="30" as="alternateBounds" />
          </mxGeometry>
        </mxCell>
        <mxCell id="j8RtDfleuWw_CoYaBpES-101" value="" style="shape=partialRectangle;connectable=0;fillColor=none;top=0;left=0;bottom=0;right=0;align=left;spacingLeft=6;fontStyle=5;overflow=hidden;fontFamily=Times New Roman;fontSize=28;rounded=0;" vertex="1" parent="j8RtDfleuWw_CoYaBpES-99">
          <mxGeometry x="60" width="120" height="30" as="geometry">
            <mxRectangle width="120" height="30" as="alternateBounds" />
          </mxGeometry>
        </mxCell>
        <mxCell id="j8RtDfleuWw_CoYaBpES-102" value="" style="shape=tableRow;horizontal=0;startSize=0;swimlaneHead=0;swimlaneBody=0;fillColor=none;collapsible=0;dropTarget=0;points=[[0,0.5],[1,0.5]];portConstraint=eastwest;top=0;left=0;right=0;bottom=0;fontFamily=Times New Roman;fontSize=28;rounded=0;" vertex="1" parent="j8RtDfleuWw_CoYaBpES-95">
          <mxGeometry y="90" width="180" height="30" as="geometry" />
        </mxCell>
        <mxCell id="j8RtDfleuWw_CoYaBpES-103" value="" style="shape=partialRectangle;connectable=0;fillColor=none;top=0;left=0;bottom=0;right=0;editable=1;overflow=hidden;fontFamily=Times New Roman;fontSize=28;rounded=0;" vertex="1" parent="j8RtDfleuWw_CoYaBpES-102">
          <mxGeometry width="60" height="30" as="geometry">
            <mxRectangle width="60" height="30" as="alternateBounds" />
          </mxGeometry>
        </mxCell>
        <mxCell id="j8RtDfleuWw_CoYaBpES-104" value="" style="shape=partialRectangle;connectable=0;fillColor=none;top=0;left=0;bottom=0;right=0;align=left;spacingLeft=6;overflow=hidden;fontFamily=Times New Roman;fontSize=28;rounded=0;" vertex="1" parent="j8RtDfleuWw_CoYaBpES-102">
          <mxGeometry x="60" width="120" height="30" as="geometry">
            <mxRectangle width="120" height="30" as="alternateBounds" />
          </mxGeometry>
        </mxCell>
        <mxCell id="j8RtDfleuWw_CoYaBpES-105" value="" style="shape=tableRow;horizontal=0;startSize=0;swimlaneHead=0;swimlaneBody=0;fillColor=none;collapsible=0;dropTarget=0;points=[[0,0.5],[1,0.5]];portConstraint=eastwest;top=0;left=0;right=0;bottom=0;fontFamily=Times New Roman;fontSize=28;rounded=0;" vertex="1" parent="j8RtDfleuWw_CoYaBpES-95">
          <mxGeometry y="120" width="180" height="30" as="geometry" />
        </mxCell>
        <mxCell id="j8RtDfleuWw_CoYaBpES-106" value="" style="shape=partialRectangle;connectable=0;fillColor=none;top=0;left=0;bottom=0;right=0;editable=1;overflow=hidden;fontFamily=Times New Roman;fontSize=28;rounded=0;" vertex="1" parent="j8RtDfleuWw_CoYaBpES-105">
          <mxGeometry width="60" height="30" as="geometry">
            <mxRectangle width="60" height="30" as="alternateBounds" />
          </mxGeometry>
        </mxCell>
        <mxCell id="j8RtDfleuWw_CoYaBpES-107" value="" style="shape=partialRectangle;connectable=0;fillColor=none;top=0;left=0;bottom=0;right=0;align=left;spacingLeft=6;overflow=hidden;fontFamily=Times New Roman;fontSize=28;rounded=0;" vertex="1" parent="j8RtDfleuWw_CoYaBpES-105">
          <mxGeometry x="60" width="120" height="30" as="geometry">
            <mxRectangle width="120" height="30" as="alternateBounds" />
          </mxGeometry>
        </mxCell>
        <mxCell id="j8RtDfleuWw_CoYaBpES-152" style="edgeStyle=orthogonalEdgeStyle;orthogonalLoop=1;jettySize=auto;html=1;entryX=0.5;entryY=1.1;entryDx=0;entryDy=0;entryPerimeter=0;fontFamily=Times New Roman;fontSize=28;endArrow=none;endFill=0;" edge="1" parent="1" source="j8RtDfleuWw_CoYaBpES-36" target="j8RtDfleuWw_CoYaBpES-29">
          <mxGeometry relative="1" as="geometry">
            <Array as="points">
              <mxPoint x="130" y="555" />
              <mxPoint x="130" y="413" />
            </Array>
          </mxGeometry>
        </mxCell>
        <mxCell id="j8RtDfleuWw_CoYaBpES-153" style="edgeStyle=orthogonalEdgeStyle;orthogonalLoop=1;jettySize=auto;html=1;fontFamily=Times New Roman;fontSize=28;endArrow=none;endFill=0;" edge="1" parent="1" source="j8RtDfleuWw_CoYaBpES-36" target="j8RtDfleuWw_CoYaBpES-49">
          <mxGeometry relative="1" as="geometry" />
        </mxCell>
      </root>
    </mxGraphModel>
  </diagram>
</mxfile>
